<?xml version="1.0" encoding="utf-8"?>
<!-- Generator: Adobe Illustrator 24.0.0, SVG Export Plug-In . SVG Version: 6.00 Build 0)  -->
<svg version="1.1" id="Layer_1" xmlns="http://www.w3.org/2000/svg" xmlns:xlink="http://www.w3.org/1999/xlink" x="0px" y="0px"
	 viewBox="0 0 708.4 289.3" style="enable-background:new 0 0 708.4 289.3;" xml:space="preserve">
<style type="text/css">
	.st0{fill:#0098CE;}
	.st1{fill:#0083BC;}
	.st2{fill:url(#SVGID_1_);}
	.st3{fill:#3D4E57;}
</style>
<path class="st0" d="M35.3,79.1c0-1.5,0.1-3,0.1-4.6C21.9,95.2,14,119.9,14,146.5c0,42.3,20,80,51,104.1
	c-9.7-27.4-15.7-56.5-17.3-86.8C39.7,136.9,35.3,108.5,35.3,79.1z"/>
<path class="st1" d="M47.8,163.8c-0.3-5.2-0.4-10.4-0.4-15.7c0-34.8,5.9-68.2,16.6-99.4c0.2-1.9,0.3-3.9,0.5-5.8
	c-11.3,8.9-21.1,19.6-29,31.6c0,1.5-0.1,3-0.1,4.6C35.3,108.5,39.7,136.9,47.8,163.8z"/>
<linearGradient id="SVGID_1_" gradientUnits="userSpaceOnUse" x1="39.2189" y1="56.2114" x2="117.2189" y2="291.0686">
	<stop  offset="0" style="stop-color:#1D3164"/>
	<stop  offset="0.5116" style="stop-color:#005D9B"/>
	<stop  offset="1" style="stop-color:#1D3164"/>
</linearGradient>
<path class="st2" d="M84,185c-13.6-34.2-21.2-71.5-21.2-110.6c0-8.7,0.5-17.2,1.2-25.7c-10.7,31.2-16.6,64.6-16.6,99.4
	c0,5.3,0.1,10.5,0.4,15.7c12.3,40.8,33.2,77.8,60.6,109c0.4,0.1,0.7,0.2,1.1,0.3C96.8,245.8,88,216.1,84,185z"/>
<path class="st1" d="M109.6,273.1c10.6,3,21.7,4.7,33.3,5c-25-26.9-45-58.4-58.8-93.1C88,216.1,96.8,245.8,109.6,273.1z"/>
<path class="st0" d="M113.2,146.4c0-47.2,10.9-91.8,30.4-131.5c-11.8,0.2-23.2,1.9-34.1,5c-17.9,38.4-28,81.3-28,126.5
	c0,13.1,0.9,26,2.6,38.7c13.8,34.7,33.8,66.2,58.8,93.1c0.3,0,0.6,0,0.8,0C124.1,238.4,113.2,193.7,113.2,146.4z"/>
<path class="st3" d="M235.4,180.5h-45.1c-0.8,0-1.5,0.5-1.8,1.2l-5.5,13.1c-0.3,0.7-1,1.2-1.8,1.2h-21.1c-1.4,0-2.3-1.4-1.8-2.7
	l40.7-95c0.3-0.7,1-1.2,1.8-1.2h24.1c0.8,0,1.5,0.5,1.8,1.2l40.8,95c0.5,1.3-0.4,2.7-1.8,2.7h-21.2c-0.8,0-1.5-0.5-1.8-1.2l-5.4-13
	C236.9,181,236.2,180.5,235.4,180.5z M227.3,158.4l-12.5-30.1c-0.7-1.6-2.9-1.6-3.5,0l-12.8,30.1c-0.5,1.3,0.4,2.7,1.8,2.7h25.3
	C226.9,161,227.8,159.6,227.3,158.4z"/>
<path class="st3" d="M363.7,144.7c0,32.3-20.6,51.8-48.3,51.8c-28.1,0-47.1-19.5-47.1-51.8V99.1c0-1.1,0.9-1.9,1.9-1.9h20.9
	c0.6,0,1.1,0.5,1.1,1.1v46.4c0,18.8,8.1,30,23.3,30c14.8,0,24.1-11.2,24.1-30V98.6c0-0.7,0.6-1.4,1.4-1.4h20.9
	c1.1,0,1.9,0.9,1.9,1.9V144.7z"/>
<path class="st3" d="M475.4,146.4c0,28.8-21.4,49.6-52.2,49.6h-41.8c-1.1,0-1.9-0.9-1.9-1.9V99.2c0-1.1,0.9-1.9,1.9-1.9l41.8-0.1
	C455.7,97,475.4,117.9,475.4,146.4z M405.2,173.9h15.7c18.8,0,33.8-17.3,29.5-35.6c-3-12.5-13.1-19.1-27.2-19.1h-18
	c-1.1,0-1.9,0.9-1.9,1.9V172C403.2,173,404.1,173.9,405.2,173.9z"/>
<path class="st3" d="M552.6,180.6h-44.8c-0.9,0-1.6,0.5-2,1.3l-5.4,12.9c-0.3,0.8-1.1,1.3-2,1.3h-20.6c-1.6,0-2.6-1.6-2-3l40.5-95
	c0.3-0.8,1.1-1.3,2-1.3H542c0.9,0,1.6,0.5,2,1.3l40.6,95.1c0.6,1.4-0.4,3-2,3h-20.7c-0.9,0-1.7-0.5-2-1.3l-5.3-12.8
	C554.3,181.2,553.5,180.6,552.6,180.6z M544.5,158.1l-12.2-29.4c-0.7-1.8-3.2-1.8-4,0l-12.4,29.4c-0.6,1.4,0.4,3,2,3h24.6
	C544.1,161.1,545.1,159.5,544.5,158.1z"/>
<path class="st1" d="M495.5,212.3l-8.6,22.3c-0.2,0.4-0.4,0.6-0.9,0.6h-1c-0.5,0-0.7-0.1-0.9-0.5l-8.5-22.4
	c-0.2-0.4-0.1-0.6,0.4-0.6h1c0.8,0,1,0.1,1.2,0.6l6.5,17.4c0.4,1.1,0.7,2.3,0.8,2.7h0.1c0.1-0.3,0.4-1.6,0.8-2.7l6.5-17.4
	c0.1-0.5,0.4-0.6,1.2-0.6h1C495.5,211.7,495.6,211.9,495.5,212.3z"/>
<path class="st1" d="M519.3,211.7h1.1c0.5,0,0.6,0.2,0.6,0.7v22.2c0,0.5-0.1,0.7-0.6,0.7h-1.1c-0.5,0-0.7-0.2-0.7-0.7v-22.2
	C518.7,211.8,518.8,211.7,519.3,211.7z"/>
<path class="st1" d="M554.1,211.2c4.6,0,7,1.6,8.7,5.1c0.2,0.4,0.1,0.7-0.4,0.9l-1,0.5c-0.4,0.2-0.6,0.1-0.9-0.3
	c-1.3-2.6-3.1-3.8-6.5-3.8c-3.9,0-6.1,1.6-6.1,4.4c0,3.4,3.4,3.9,6.9,4.3c4,0.5,8.3,1.2,8.3,6.5c0,4.3-3.1,7-9,7
	c-4.8,0-7.5-1.9-9-5.7c-0.2-0.5-0.1-0.7,0.4-0.9l1-0.4c0.5-0.2,0.6-0.1,0.9,0.4c1.2,2.9,3.4,4.3,6.7,4.3c4.3,0,6.6-1.5,6.6-4.6
	c0-3.4-3.1-3.9-6.5-4.2c-4.1-0.5-8.8-1.2-8.8-6.5C545.6,213.9,548.6,211.2,554.1,211.2z"/>
<path class="st1" d="M588,211.7h1.1c0.5,0,0.6,0.2,0.6,0.7v22.2c0,0.5-0.1,0.7-0.6,0.7H588c-0.5,0-0.7-0.2-0.7-0.7v-22.2
	C587.4,211.8,587.6,211.7,588,211.7z"/>
<path class="st1" d="M623.6,211.2c5.9,0,9.1,3.2,9.1,8.3v7.8c0,5.2-3.2,8.3-9.1,8.3c-5.9,0-9.1-3.2-9.1-8.3v-7.8
	C614.4,214.4,617.6,211.2,623.6,211.2z M623.6,213.4c-4.4,0-6.7,2.3-6.7,6.1v7.8c0,3.8,2.4,6.1,6.7,6.1c4.3,0,6.7-2.3,6.7-6.1v-7.8
	C630.3,215.7,627.9,213.4,623.6,213.4z"/>
<path class="st1" d="M675.1,212.3v22.2c0,0.5-0.2,0.7-0.7,0.7h-1.1c-0.4,0-0.5-0.1-0.7-0.4l-10.6-15.2c-1.2-1.8-2.2-4-2.7-4.7h-0.1
	c0,0.9,0.4,3.4,0.4,5.9v13.8c0,0.5-0.2,0.7-0.6,0.7h-1c-0.5,0-0.7-0.2-0.7-0.7v-22.2c0-0.5,0.2-0.7,0.7-0.7h1.1
	c0.4,0,0.6,0.1,0.7,0.3l10.3,14.9c1.4,2,2.4,4.2,2.9,5h0.1c0-1.1-0.4-3.5-0.4-6.2v-13.4c0-0.5,0.2-0.6,0.7-0.6h1
	C674.9,211.7,675.1,211.8,675.1,212.3z"/>
<path class="st3" d="M657,146.1l37.8-47.4c0.6-0.8,0.1-2-1-2h-26.3c-0.4,0-0.7,0.2-1,0.5l-24.3,30.5L618,97.2
	c-0.2-0.3-0.6-0.5-1-0.5h-26.3c-1,0-1.6,1.2-1,2l37.8,47.4l-37.8,47.4c-0.6,0.8-0.1,2,1,2h26.3c0.4,0,0.7-0.2,1-0.5l24.3-30.5
	l24.3,30.5c0.2,0.3,0.6,0.5,1,0.5h26.3c1,0,1.6-1.2,1-2L657,146.1z"/>
</svg>
